<svg id="Layer_1" data-name="Layer 1" xmlns="http://www.w3.org/2000/svg" viewBox="0 0 500 500"><path d="M270.47,78.86H260.11L239.86,43.64V78.86H230.2V29.28h10.87l19.74,34.61V29.28h9.66Z"/><path d="M466.39,247.33H442.3v12.75h27.45V269H432.18V219.41h36.36v8.78H442.3v10.53h24.09Z"/><path d="M79.49,219.41H90L76.06,269H66.17l-6-29-1.75-9.59L56.68,240l-6,29H41.07L27,219.41H38l6.56,28.39L46,255.7,47.43,248,53,219.41H64l5.88,28.39,1.52,7.9,1.51-7.6Z"/><path d="M250.05,461.41a18.16,18.16,0,0,0,5.95-.81c2.9-1,4.34-2.94,4.34-5.75a4.24,4.24,0,0,0-2.15-3.8,23.17,23.17,0,0,0-6.76-2.32l-5.25-1.18q-7.74-1.74-10.7-3.8-5-3.44-5-10.73A14.34,14.34,0,0,1,235.32,422q4.85-4.4,14.23-4.4a21.64,21.64,0,0,1,13.37,4.15q5.54,4.16,5.8,12.06h-10a7.13,7.13,0,0,0-3.9-6.36,13.06,13.06,0,0,0-6-1.24,11.28,11.28,0,0,0-6.39,1.61,5.15,5.15,0,0,0-2.39,4.51,4.26,4.26,0,0,0,2.35,4,28.91,28.91,0,0,0,6.46,2.05l8.55,2.05a22.13,22.13,0,0,1,8.47,3.6q4.44,3.51,4.44,10.13a14.31,14.31,0,0,1-5.19,11.29q-5.2,4.49-14.69,4.49-9.67,0-15.23-4.43t-5.55-12.16h9.89a10.12,10.12,0,0,0,1.85,5.08Q243.93,461.41,250.05,461.41Z"/><path d="M250,0C111.93,0,0,111.93,0,250S111.93,500,250,500,500,388.07,500,250,388.07,0,250,0ZM415.48,409.72l-10.79-10.8a4.13,4.13,0,0,0-5.85,5.84l10.79,10.81a229.73,229.73,0,0,1-319.35-.09l10.78-10.78a4.13,4.13,0,1,0-5.84-5.85L84.43,409.63a229.73,229.73,0,0,1,.06-319.32l10.77,10.77a4.14,4.14,0,0,0,5.85-5.85L90.34,84.46a229.73,229.73,0,0,1,319.32,0L398.88,95.24a4.13,4.13,0,0,0,0,5.85l0,0,0,0a4.14,4.14,0,0,0,5.85,0l10.78-10.77a229.72,229.72,0,0,1-.08,319.35Z"/></svg>