<?xml version="1.0" standalone="no"?>
<!DOCTYPE svg PUBLIC "-//W3C//DTD SVG 20010904//EN"
 "http://www.w3.org/TR/2001/REC-SVG-20010904/DTD/svg10.dtd">
<svg version="1.0" xmlns="http://www.w3.org/2000/svg"
 width="260.000000pt" height="260.000000pt" viewBox="0 0 260.000000 260.000000"
 preserveAspectRatio="xMidYMid meet">
<metadata>
Created by potrace 1.14, written by Peter Selinger 2001-2017
</metadata>
<g transform="translate(0.000000,260.000000) scale(0.100000,-0.100000)"
fill="#000000" stroke="none">
<path d="M1530 2460 c-29 -27 -30 -31 -30 -114 0 -79 2 -89 25 -111 29 -30 74
-33 106 -6 21 17 24 28 25 110 2 103 -8 125 -63 140 -28 8 -36 6 -63 -19z"/>
<path d="M1079 2331 c-39 -32 -32 -84 22 -161 41 -60 48 -65 86 -68 49 -4 83
25 83 70 0 29 -52 120 -90 158 -25 25 -71 26 -101 1z"/>
<path d="M1983 2332 c-34 -27 -93 -128 -93 -159 0 -16 7 -38 15 -50 16 -23 71
-35 97 -22 18 10 78 95 99 141 31 70 -57 139 -118 90z"/>
<path d="M1460 2064 c-94 -24 -179 -72 -245 -139 -128 -128 -177 -299 -140
-486 4 -23 1 -28 -23 -34 -15 -3 -61 -23 -102 -43 -143 -70 -271 -227 -316
-389 l-17 -61 -47 -6 c-112 -15 -226 -103 -278 -214 -35 -74 -38 -197 -7 -281
39 -107 162 -209 275 -226 25 -4 331 -8 680 -7 620 0 636 0 694 21 185 65 286
236 255 432 -23 143 -158 283 -296 305 -38 6 -41 9 -60 63 -11 31 -23 63 -27
72 -5 12 10 26 58 58 151 97 230 248 229 436 0 109 -23 187 -78 275 -41 65
-127 142 -197 177 -90 45 -121 53 -228 58 -43 2 -99 -3 -130 -11z"/>
<path d="M778 1979 c-30 -30 -33 -44 -18 -84 11 -29 136 -95 180 -95 52 1 90
63 66 111 -12 26 -148 98 -181 96 -11 -1 -32 -13 -47 -28z"/>
<path d="M2310 2000 c-44 -12 -135 -57 -149 -74 -39 -46 -2 -126 57 -126 37 0
168 64 180 87 13 25 6 72 -13 93 -20 23 -43 29 -75 20z"/>
<path d="M771 1539 c-49 -10 -69 -23 -82 -57 -12 -31 12 -88 41 -97 19 -6 93
-1 153 11 23 4 67 31 68 42 7 49 3 65 -17 87 -25 27 -75 32 -163 14z"/>
<path d="M2232 1534 c-28 -23 -36 -60 -21 -96 15 -36 38 -44 151 -54 58 -5 69
-3 87 15 28 28 28 84 1 111 -11 11 -23 21 -27 21 -21 4 -54 8 -108 14 -50 6
-64 4 -83 -11z"/>
<path d="M2072 1183 c-19 -8 -40 -55 -36 -83 4 -24 32 -55 102 -113 45 -37 93
-37 122 0 16 20 20 37 17 60 -5 29 -23 50 -110 126 -19 16 -67 22 -95 10z"/>
</g>
</svg>
